<svg width="16" height="16" viewBox="0 0 16 16" fill="none" xmlns="http://www.w3.org/2000/svg">
<path d="M16 8C16 12.4183 12.4183 16 8 16C3.58172 16 0 12.4183 0 8C0 3.58172 3.58172 0 8 0C12.4183 0 16 3.58172 16 8ZM3.18257 8C3.18257 10.6606 5.33941 12.8174 8 12.8174C10.6606 12.8174 12.8174 10.6606 12.8174 8C12.8174 5.33941 10.6606 3.18257 8 3.18257C5.33941 3.18257 3.18257 5.33941 3.18257 8Z" fill="#C4C4C4" fill-opacity="0.16"/>
<path d="M8 16C6.68439 16 5.38909 15.6755 4.22883 15.0554C3.06856 14.4352 2.07916 13.5384 1.34824 12.4446C0.617331 11.3507 0.167474 10.0934 0.0385222 8.78414C-0.0904299 7.47486 0.105502 6.154 0.608964 4.93853C1.11242 3.72307 1.90787 2.65053 2.92485 1.81592C3.94183 0.981304 5.14895 0.41038 6.43928 0.153718C7.72961 -0.102945 9.06332 -0.0374236 10.3223 0.344477C11.5812 0.726378 12.7266 1.41287 13.6569 2.34314L11.3941 4.60589C10.8359 4.04772 10.1487 3.63583 9.39337 3.40669C8.63799 3.17755 7.83776 3.13823 7.06357 3.29223C6.28937 3.44623 5.5651 3.78878 4.95491 4.28955C4.34472 4.79032 3.86745 5.43384 3.56538 6.16312C3.2633 6.8924 3.14574 7.68492 3.22311 8.47048C3.30048 9.25605 3.5704 10.0104 4.00895 10.6667C4.44749 11.3231 5.04114 11.8611 5.7373 12.2332C6.43345 12.6053 7.21064 12.8 8 12.8L8 16Z" fill="white"/>
</svg>
