<svg width="38" height="47" viewBox="0 0 38 47" fill="none" xmlns="http://www.w3.org/2000/svg">
<path d="M31.7364 24.9696C31.802 32.0822 37.9321 34.4491 38 34.4793C37.9482 34.6462 37.0205 37.8524 34.7704 41.1641C32.8253 44.0272 30.8065 46.8798 27.6263 46.9389C24.5014 46.9969 23.4966 45.0727 19.924 45.0727C16.3525 45.0727 15.2361 46.8798 12.278 46.9969C9.20833 47.1139 6.87078 43.9008 4.90948 41.0482C0.901802 35.213 -2.1609 24.5593 1.95153 17.3679C3.9945 13.7967 7.64544 11.5352 11.6082 11.4772C14.6226 11.4193 17.4678 13.5195 19.3105 13.5195C21.152 13.5195 24.6096 10.9938 28.2443 11.3647C29.766 11.4285 34.0372 11.9837 36.7799 16.0268C36.5589 16.1648 31.6834 19.0232 31.7364 24.9696ZM25.8636 7.50425C27.4933 5.51754 28.5902 2.75185 28.291 0C25.9419 0.0950838 23.1013 1.5765 21.4163 3.56212C19.9062 5.32049 18.5837 8.13486 18.9406 10.8322C21.5589 11.0363 24.2338 9.49223 25.8636 7.50425Z" fill="#F2F4F7"/>
</svg>
